<svg data-name="Group 177" xmlns="http://www.w3.org/2000/svg" width="10.9" height="10.956" viewBox="0 0 10.9 10.956">
    <defs>
        <clipPath id="gde5gym44a">
            <path data-name="Rectangle 122" style="fill:#045768" d="M0 0h10.9v10.956H0z"/>
        </clipPath>
    </defs>
    <g data-name="Group 176" style="clip-path:url(#gde5gym44a)">
        <path data-name="Path 422" d="M7.414 9.911a4.368 4.368 0 0 1-.851-.082.977.977 0 0 1-.774-.96V6.961a1.268 1.268 0 0 1 .311-.832l.141-.162a.923.923 0 0 0 .227-.6v-.7h.348v.7a1.27 1.27 0 0 1-.311.831l-.142.163a.915.915 0 0 0-.227.6v1.908a.627.627 0 0 0 .494.618 4.231 4.231 0 0 0 1.6 0 .632.632 0 0 0 .512-.62V6.961a.915.915 0 0 0-.226-.6l-.142-.164a1.27 1.27 0 0 1-.311-.831v-.7h.348v.7a.923.923 0 0 0 .227.6l.142.163a1.268 1.268 0 0 1 .311.832v1.906a.979.979 0 0 1-.8.961 4.693 4.693 0 0 1-.878.083" transform="translate(-1.988 -1.6)" style="fill:#045768"/>
        <path data-name="Path 423" d="M7.79 4.856c-.162 0-.965-.02-.965-.414s.8-.414.965-.414.963.02.963.414-.8.414-.963.414m-.521-.414a2.082 2.082 0 0 0 1.043 0 2.082 2.082 0 0 0-1.043 0" transform="translate(-2.344 -1.383)" style="fill:#045768"/>
        <path data-name="Path 424" d="M7.848 6.308a2.363 2.363 0 0 1-.9-.178l.144-.317a1.942 1.942 0 0 0 1.457 0l.144.316a2.025 2.025 0 0 1-.844.178" transform="translate(-2.386 -1.996)" style="fill:#045768"/>
        <path data-name="Path 425" d="M5.45 10.956a5.478 5.478 0 1 1 5.45-5.478 5.47 5.47 0 0 1-5.45 5.478m0-10.7a5.225 5.225 0 1 0 5.2 5.225A5.217 5.217 0 0 0 5.45.253" style="fill:#045768"/>
    </g>
</svg>
