<svg xmlns="http://www.w3.org/2000/svg" width="10.9" height="10.956" viewBox="0 0 10.9 10.956">
    <g data-name="Group 313">
        <path data-name="Path 426" d="M5.45 10.956a5.478 5.478 0 1 1 5.45-5.478 5.47 5.47 0 0 1-5.45 5.478m0-10.7a5.225 5.225 0 1 0 5.2 5.225A5.217 5.217 0 0 0 5.45.253" style="fill:#045768"/>
        <g data-name="Group 312">
            <path data-name="Path 3419" d="M5.82 4.8a2.367 2.367 0 0 1-2.41 2.579A2.367 2.367 0 0 1 1 4.8C1 3.152 2.079 1 3.41 1s2.41 2.152 2.41 3.8z" transform="translate(2.04 1.288)" style="fill:none;stroke:#045768;stroke-linecap:round;stroke-linejoin:round;stroke-width:.3px"/>
            <path data-name="Path 3420" d="M8.877 8.7a3.368 3.368 0 0 0-1.052 2.11" transform="translate(-4.043 -5.576)" style="fill:none;stroke:#045768;stroke-linecap:round;stroke-linejoin:round;stroke-width:.3px"/>
        </g>
    </g>
</svg>
