<svg xmlns="http://www.w3.org/2000/svg" width="52.588" height="52.588" viewBox="0 0 52.588 52.588">
    <defs>
        <clipPath id="69snwcpltb">
            <path data-name="Rectangle 196" style="fill:#045768" d="M0 0h21.226v20.633H0z"/>
        </clipPath>
        <filter id="v0sr3louba" x="0" y="0" width="52.588" height="52.588" filterUnits="userSpaceOnUse">
            <feOffset dy="3"/>
            <feGaussianBlur stdDeviation="3" result="blur"/>
            <feFlood flood-opacity=".161"/>
            <feComposite operator="in" in2="blur"/>
            <feComposite in="SourceGraphic"/>
        </filter>
    </defs>
    <g data-name="Group 275">
        <g style="filter:url(#v0sr3louba)">
            <circle data-name="Ellipse 3" cx="17" cy="17" r="17" transform="translate(9.004 6.594)" style="fill:#fff;opacity:.75"/>
        </g>
        <g data-name="Group 272">
            <g data-name="Group 271" style="clip-path:url(#69snwcpltb)" transform="translate(15.949 12.978)">
                <path data-name="Path 3405" d="M20.386 5.937A9.71 9.71 0 0 0 18.1 2.84 10.678 10.678 0 0 0 14.731.761a11.528 11.528 0 0 0-8.237 0A10.678 10.678 0 0 0 3.122 2.84 9.713 9.713 0 0 0 .84 5.937 9 9 0 0 0 0 9.743a9.261 9.261 0 0 0 2.5 6.283l-.866 4.607 4.609-2.008a11.518 11.518 0 0 0 8.486.1 10.676 10.676 0 0 0 3.372-2.08 9.709 9.709 0 0 0 2.282-3.1 9.038 9.038 0 0 0 0-7.61m-9.773 12.4a10.112 10.112 0 0 1-4.128-.863l-.24-.106L3.19 18.7l.571-3.039-.206-.211a8.162 8.162 0 0 1-2.384-5.707c0-4.741 4.235-8.6 9.441-8.6s9.442 3.857 9.442 8.6-4.235 8.6-9.441 8.6" style="fill:#045768"/>
                <path data-name="Path 3406" d="M71.814 69.385a12.11 12.11 0 0 0-1.017-.443c-.151-.054-.494-.2-.617-.108-.382.307-.787 1.165-1.218 1.328a6.1 6.1 0 0 1-2.844-1.66 9.692 9.692 0 0 1-1.124-1.481c-.023-.254.44-.591.542-.783.538-.594.129-.961.06-1.21-.119-.256-.331-.707-.511-1.085-.154-.247-.188-.607-.471-.746-1.181-.594-1.854.592-2.133 1.211-1.669 3.93 8.373 11.42 10.416 6.264.1-.451.063-.616-.1-.824a8.889 8.889 0 0 0-.985-.463" transform="translate(-56.902 -57.702)" style="fill:#045768"/>
            </g>
        </g>
    </g>
</svg>
